<svg width="75" height="92" viewBox="0 0 75 92" fill="none" xmlns="http://www.w3.org/2000/svg">
<path d="M23.9465 4.83945C32.8828 1.00958 42.4338 -0.15651 55.3738 15.3152C65.0356 26.8674 63.1736 49.843 50.7199 64.6069L50.7027 64.5453C50.422 64.8261 50.1475 65.1015 49.8789 65.371C44.3619 70.9076 41.3136 73.9666 36.5925 70.1039C31.6416 66.0531 24.8846 54.1595 21.2276 42.3448C17.5706 30.53 17.1375 27.6631 17.1375 24.3526C17.1375 19.9531 22.2351 20.6597 24.8846 22.4285C28.7937 25.0381 31.0339 29.9112 26.1167 37.3938C23.0737 42.0246 24.8846 45.6733 24.8846 45.6733C24.8846 45.6733 29.498 54.8009 36.5925 50.8627C43.687 46.9244 51.6648 12.3578 24.8846 9.43221C-7.69392 5.87321 0.399012 35.2506 2.21776 41.8526C2.26781 42.0343 2.31311 42.1987 2.35268 42.3448C7.48359 61.28 18.5756 79.1207 24.8846 86.9349C29.7178 92.921 35.959 92.8352 43.4507 90.0258C47.2184 88.6129 49.5984 86.8215 51.9425 84.8628L52.0105 84.8531C52.8723 84.2448 53.8304 83.4274 54.8521 82.4233C55.0792 82.2388 55.3105 82.0536 55.5467 81.868L55.515 81.7546C65.5485 71.381 80.783 44.2992 72.5277 20.019C67.5051 5.24664 47.1992 -7.19726 23.9465 4.83945Z" fill="#8135F9"/>
<path d="M23.9465 4.83945C32.8828 1.00958 42.4338 -0.15651 55.3738 15.3152C65.0356 26.8674 63.1736 49.843 50.7199 64.6069L50.7027 64.5453C50.422 64.8261 50.1475 65.1015 49.8789 65.371C44.3619 70.9076 41.3136 73.9666 36.5925 70.1039C31.6416 66.0531 24.8846 54.1595 21.2276 42.3448C17.5706 30.53 17.1375 27.6631 17.1375 24.3526C17.1375 19.9531 22.2351 20.6597 24.8846 22.4285C28.7937 25.0381 31.0339 29.9112 26.1167 37.3938C23.0737 42.0246 24.8846 45.6733 24.8846 45.6733C24.8846 45.6733 29.498 54.8009 36.5925 50.8627C43.687 46.9244 51.6648 12.3578 24.8846 9.43221C-7.69392 5.87321 0.399012 35.2506 2.21776 41.8526C2.26781 42.0343 2.31311 42.1987 2.35268 42.3448C7.48359 61.28 18.5756 79.1207 24.8846 86.9349C29.7178 92.921 35.959 92.8352 43.4507 90.0258C47.2184 88.6129 49.5984 86.8215 51.9425 84.8628L52.0105 84.8531C52.8723 84.2448 53.8304 83.4274 54.8521 82.4233C55.0792 82.2388 55.3105 82.0536 55.5467 81.868L55.515 81.7546C65.5485 71.381 80.783 44.2992 72.5277 20.019C67.5051 5.24664 47.1992 -7.19726 23.9465 4.83945Z" fill="url(#paint0_radial_1391_4995)" fill-opacity="0.8"/>
<defs>
<radialGradient id="paint0_radial_1391_4995" cx="0" cy="0" r="1" gradientUnits="userSpaceOnUse" gradientTransform="translate(4.75976 12.0801) rotate(60.0347) scale(64.5482 36.9788)">
<stop offset="0.0219789" stop-color="white" stop-opacity="0.63"/>
<stop offset="0.557575" stop-color="#1FF1E3" stop-opacity="0.62"/>
<stop offset="1" stop-color="#8135F9"/>
</radialGradient>
</defs>
</svg>
