<svg width="243" height="77" viewBox="0 0 243 77" fill="none" xmlns="http://www.w3.org/2000/svg">
<path fill-rule="evenodd" clip-rule="evenodd" d="M9.99007 24.019C13.7183 22.4212 17.7029 21.9347 23.1014 28.3894C27.1322 33.2089 26.3555 42.794 21.16 48.9534L21.1529 48.928C21.0358 49.0452 20.9213 49.1601 20.8093 49.2725C18.5076 51.5824 17.2359 52.8586 15.2662 51.2471C13.2007 49.5571 10.3818 44.5951 8.85606 39.6661C7.33035 34.737 7.14971 33.541 7.14971 32.1598C7.14971 30.3244 9.27638 30.6192 10.3818 31.3571C12.0126 32.4458 12.9472 34.4788 10.8958 37.6006C9.62624 39.5325 10.3818 41.0547 10.3818 41.0547C10.3818 41.0547 12.3064 44.8627 15.2662 43.2197C18.226 41.5767 21.5543 27.1556 10.3818 25.9351C-3.20987 24.4503 0.166466 36.7064 0.925237 39.4607C0.94612 39.5365 0.96502 39.6052 0.981529 39.6661C3.12212 47.5658 7.74966 55.0088 10.3818 58.2689C12.3981 60.7663 15.0019 60.7304 18.1274 59.5584C19.6994 58.9689 20.6923 58.2215 21.6703 57.4043L21.6983 57.4003C22.0573 57.1469 22.4565 56.8064 22.8821 56.3882C22.9775 56.3107 23.0746 56.233 23.1738 56.155L23.1605 56.1074C27.3465 51.7794 33.7019 40.4812 30.2579 30.3518C28.1625 24.1889 19.691 18.9973 9.99007 24.019Z" fill="#8135F9"/>
<path fill-rule="evenodd" clip-rule="evenodd" d="M9.99007 24.019C13.7183 22.4212 17.7029 21.9347 23.1014 28.3894C27.1322 33.2089 26.3555 42.794 21.16 48.9534L21.1529 48.928C21.0358 49.0452 20.9213 49.1601 20.8093 49.2725C18.5076 51.5824 17.2359 52.8586 15.2662 51.2471C13.2007 49.5571 10.3818 44.5951 8.85606 39.6661C7.33035 34.737 7.14971 33.541 7.14971 32.1598C7.14971 30.3244 9.27638 30.6192 10.3818 31.3571C12.0126 32.4458 12.9472 34.4788 10.8958 37.6006C9.62624 39.5325 10.3818 41.0547 10.3818 41.0547C10.3818 41.0547 12.3064 44.8627 15.2662 43.2197C18.226 41.5767 21.5543 27.1556 10.3818 25.9351C-3.20987 24.4503 0.166466 36.7064 0.925237 39.4607C0.94612 39.5365 0.96502 39.6052 0.981529 39.6661C3.12212 47.5658 7.74966 55.0088 10.3818 58.2689C12.3981 60.7663 15.0019 60.7304 18.1274 59.5584C19.6994 58.9689 20.6923 58.2215 21.6703 57.4043L21.6983 57.4003C22.0573 57.1469 22.4565 56.8064 22.8821 56.3882C22.9775 56.3107 23.0746 56.233 23.1738 56.155L23.1605 56.1074C27.3465 51.7794 33.7019 40.4812 30.2579 30.3518C28.1625 24.1889 19.691 18.9973 9.99007 24.019Z" fill="url(#paint0_radial_1390_4955)" fill-opacity="0.8"/>
<path d="M130.819 29.4465C133.181 29.4465 135.28 30.065 137.116 31.3019C138.991 32.5014 140.434 34.2069 141.446 36.4185C142.495 38.63 143.02 41.1602 143.02 44.0089C143.02 46.8577 142.495 49.3691 141.446 51.5431C140.434 53.6797 139.009 55.329 137.173 56.491C135.336 57.653 133.218 58.234 130.819 58.234C129.057 58.234 127.427 57.8779 125.928 57.1657C124.466 56.4535 123.322 55.4977 122.498 54.2982V63.8565C122.498 65.1685 122.048 66.218 121.148 67.0052C120.249 67.7923 119.068 68.1859 117.606 68.1859C116.069 68.1859 114.832 67.7548 113.895 66.8927C112.958 66.0681 112.49 64.9998 112.49 63.6879V34.1694C112.49 32.7826 112.921 31.6768 113.783 30.8521C114.682 29.99 115.882 29.559 117.381 29.559C118.806 29.559 119.949 29.9338 120.811 30.6835C121.711 31.4331 122.217 32.4265 122.329 33.6634C123.116 32.3515 124.259 31.3207 125.759 30.571C127.296 29.8213 128.982 29.4465 130.819 29.4465ZM127.783 50.756C129.507 50.756 130.819 50.175 131.719 49.013C132.656 47.851 133.124 46.183 133.124 44.0089C133.124 41.7224 132.656 39.9794 131.719 38.7799C130.782 37.543 129.451 36.9245 127.727 36.9245C126.002 36.9245 124.672 37.5242 123.735 38.7237C122.798 39.9232 122.329 41.6474 122.329 43.8965C122.329 46.108 122.798 47.8135 123.735 49.013C124.672 50.175 126.021 50.756 127.783 50.756ZM150.386 58.1215C148.961 58.1215 147.762 57.7467 146.787 56.997C145.85 56.2099 145.382 55.0479 145.382 53.511V22.5308C145.382 20.9939 145.85 19.8319 146.787 19.0448C147.762 18.2576 148.961 17.864 150.386 17.864C151.81 17.864 152.991 18.2576 153.928 19.0448C154.902 19.8319 155.39 20.9939 155.39 22.5308V53.511C155.39 55.0479 154.902 56.2099 153.928 56.997C152.991 57.7467 151.81 58.1215 150.386 58.1215ZM171.822 29.4465C176.095 29.4465 179.243 30.4773 181.268 32.5389C183.329 34.563 184.36 37.6554 184.36 41.8161V53.5673C184.36 54.9916 183.929 56.1162 183.067 56.9408C182.242 57.728 181.08 58.1215 179.581 58.1215C178.269 58.1215 177.182 57.7467 176.32 56.997C175.495 56.2473 175.045 55.2353 174.97 53.9608C174.445 55.3103 173.565 56.3598 172.328 57.1095C171.091 57.8591 169.61 58.234 167.886 58.234C165.974 58.234 164.25 57.8591 162.713 57.1095C161.176 56.3223 159.958 55.254 159.058 53.9046C158.196 52.5177 157.765 50.9621 157.765 49.2379C157.765 47.2513 158.271 45.6769 159.283 44.5149C160.333 43.3155 161.982 42.4533 164.231 41.9286C166.48 41.4038 169.516 41.1414 173.34 41.1414H174.858V40.4667C174.858 39.1548 174.558 38.2177 173.958 37.6554C173.358 37.0557 172.346 36.7558 170.922 36.7558C169.385 36.7558 167.136 37.2806 164.175 38.3301C163.313 38.63 162.582 38.7799 161.982 38.7799C161.045 38.7799 160.295 38.4426 159.733 37.7679C159.171 37.0932 158.89 36.2123 158.89 35.1253C158.89 34.3006 159.058 33.6259 159.396 33.1012C159.733 32.5764 160.277 32.1078 161.026 31.6955C162.338 31.0208 163.988 30.4773 165.974 30.065C167.961 29.6527 169.91 29.4465 171.822 29.4465ZM170.247 51.5431C171.597 51.5431 172.702 51.0746 173.565 50.1375C174.427 49.1629 174.858 47.926 174.858 46.4266V45.7519H173.958C171.559 45.7519 169.854 45.9768 168.842 46.4266C167.83 46.8389 167.324 47.5511 167.324 48.5632C167.324 49.4253 167.586 50.1375 168.111 50.6998C168.673 51.262 169.385 51.5431 170.247 51.5431ZM201.045 58.234C196.547 58.234 192.986 56.9595 190.362 54.4106C187.739 51.8618 186.427 48.3945 186.427 44.0089C186.427 41.1227 187.064 38.5738 188.338 36.3622C189.613 34.1507 191.393 32.4452 193.68 31.2457C196.004 30.0462 198.646 29.4465 201.608 29.4465C203.182 29.4465 204.756 29.6527 206.33 30.065C207.905 30.4773 209.292 31.0583 210.491 31.808C211.653 32.5202 212.234 33.6072 212.234 35.0691C212.234 36.2311 211.953 37.1869 211.391 37.9366C210.866 38.6487 210.173 39.0048 209.31 39.0048C208.748 39.0048 208.205 38.9299 207.68 38.7799C207.155 38.5925 206.574 38.3301 205.937 37.9928C205.187 37.6554 204.55 37.4118 204.025 37.2619C203.5 37.0744 202.919 36.9807 202.282 36.9807C198.571 36.9807 196.716 39.2485 196.716 43.784C196.716 46.033 197.184 47.7573 198.122 48.9568C199.096 50.1188 200.483 50.6998 202.282 50.6998C202.919 50.6998 203.5 50.6248 204.025 50.4749C204.587 50.2874 205.206 50.0251 205.881 49.6877C206.63 49.3503 207.23 49.1067 207.68 48.9568C208.167 48.7693 208.692 48.6756 209.254 48.6756C210.116 48.6756 210.81 49.0505 211.335 49.8002C211.897 50.5123 212.178 51.4494 212.178 52.6114C212.178 53.3236 212.028 53.9796 211.728 54.5793C211.428 55.1416 211.016 55.5726 210.491 55.8725C207.905 57.4468 204.756 58.234 201.045 58.234ZM236.074 48.9005C236.936 48.9005 237.629 49.2379 238.154 49.9126C238.716 50.5873 238.998 51.4682 238.998 52.5552C238.998 54.0546 238.267 55.1978 236.805 55.985C235.53 56.6222 234.012 57.1657 232.25 57.6155C230.526 58.0278 228.933 58.234 227.471 58.234C224.398 58.234 221.718 57.653 219.431 56.491C217.145 55.329 215.383 53.661 214.146 51.4869C212.909 49.3129 212.29 46.764 212.29 43.8402C212.29 41.0664 212.871 38.5925 214.033 36.4185C215.233 34.2069 216.882 32.5014 218.981 31.3019C221.118 30.065 223.517 29.4465 226.178 29.4465C228.764 29.4465 231.032 30.0088 232.981 31.1333C234.931 32.2578 236.43 33.8508 237.479 35.9124C238.566 37.974 239.11 40.3917 239.11 43.1655C239.11 44.0277 238.904 44.7024 238.492 45.1897C238.117 45.6395 237.554 45.8644 236.805 45.8644H221.961C222.224 47.6636 222.805 48.9568 223.704 49.7439C224.604 50.5311 225.934 50.9247 227.696 50.9247C228.633 50.9247 229.495 50.831 230.283 50.6435C231.07 50.4186 231.951 50.1188 232.925 49.7439C233.487 49.519 234.031 49.3316 234.556 49.1817C235.118 48.9943 235.624 48.9005 236.074 48.9005ZM226.459 36.1936C225.147 36.1936 224.098 36.6246 223.311 37.4868C222.523 38.3114 222.055 39.5296 221.905 41.1414H230.732C230.507 37.8429 229.083 36.1936 226.459 36.1936Z" fill="#282A3A"/>
<path d="M42.583 57.2811C41.9083 57.2811 41.3461 57.0937 40.8963 56.7189C40.4839 56.3066 40.2778 55.7443 40.2778 55.0321V31.3049C40.2778 30.5927 40.4839 30.0492 40.8963 29.6744C41.3461 29.2621 41.9083 29.0559 42.583 29.0559C43.2577 29.0559 43.8012 29.2621 44.2136 29.6744C44.6259 30.0492 44.832 30.5927 44.832 31.3049V55.0321C44.832 55.7818 44.6259 56.344 44.2136 56.7189C43.8012 57.0937 43.2577 57.2811 42.583 57.2811ZM42.583 23.1522C41.6834 23.1522 40.9525 22.8898 40.3902 22.3651C39.828 21.8403 39.5468 21.1468 39.5468 20.2847C39.5468 19.4601 39.828 18.7854 40.3902 18.2606C40.9525 17.7358 41.6834 17.4734 42.583 17.4734C43.4826 17.4734 44.2136 17.7358 44.7758 18.2606C45.3381 18.7854 45.6192 19.4601 45.6192 20.2847C45.6192 21.1468 45.3381 21.8403 44.7758 22.3651C44.2136 22.8898 43.4826 23.1522 42.583 23.1522ZM73.3059 29.0559C74.0181 29.0559 74.5803 29.2621 74.9927 29.6744C75.405 30.0867 75.6111 30.6302 75.6111 31.3049V55.1446C75.6111 59.2303 74.5616 62.3039 72.4625 64.3655C70.3634 66.4646 67.2523 67.5142 63.1291 67.5142C59.1183 67.5142 55.7823 66.727 53.1209 65.1527C51.7715 64.403 51.0968 63.5409 51.0968 62.5663C51.0968 62.0416 51.228 61.6105 51.4904 61.2731C51.7902 60.9358 52.1651 60.7671 52.6149 60.7671C52.9897 60.7671 53.6644 61.0295 54.639 61.5543C55.9509 62.229 57.2441 62.7725 58.5186 63.1848C59.793 63.5971 61.3111 63.8033 63.0728 63.8033C65.7342 63.8033 67.7396 63.0911 69.089 61.6667C70.4384 60.2798 71.1131 58.237 71.1131 55.5381V50.7027C70.3259 52.4645 69.1077 53.8139 67.4584 54.751C65.8466 55.6881 63.935 56.1566 61.7234 56.1566C59.3245 56.1566 57.1879 55.5944 55.3137 54.4699C53.477 53.3453 52.0339 51.7523 50.9843 49.6907C49.9723 47.6291 49.4663 45.2489 49.4663 42.55C49.4663 39.8512 49.9723 37.471 50.9843 35.4094C52.0339 33.3478 53.477 31.7547 55.3137 30.6302C57.1879 29.5057 59.3245 28.9434 61.7234 28.9434C63.8975 28.9434 65.7904 29.412 67.4022 30.3491C69.014 31.2862 70.2322 32.6169 71.0569 34.3411V31.3049C71.0569 30.6302 71.2443 30.0867 71.6191 29.6744C72.0314 29.2621 72.5937 29.0559 73.3059 29.0559ZM62.623 52.3895C65.2469 52.3895 67.3085 51.5274 68.8078 49.8031C70.3072 48.0414 71.0569 45.6237 71.0569 42.55C71.0569 39.5139 70.3072 37.1336 68.8078 35.4094C67.346 33.6477 65.2844 32.7668 62.623 32.7668C59.9617 32.7668 57.8626 33.6477 56.3258 35.4094C54.8264 37.1336 54.0768 39.5139 54.0768 42.55C54.0768 45.6237 54.8264 48.0414 56.3258 49.8031C57.8626 51.5274 59.9617 52.3895 62.623 52.3895ZM93.15 57.3936C90.5636 57.3936 88.2771 56.8126 86.2905 55.6506C84.3413 54.4886 82.8232 52.8393 81.7362 50.7027C80.6867 48.5287 80.1619 46.0173 80.1619 43.1685C80.1619 40.3198 80.6867 37.8271 81.7362 35.6905C82.8232 33.5165 84.3413 31.8484 86.2905 30.6864C88.2771 29.5244 90.5636 28.9434 93.15 28.9434C95.7364 28.9434 98.0229 29.5244 100.01 30.6864C101.996 31.8484 103.514 33.5165 104.564 35.6905C105.651 37.8271 106.194 40.3198 106.194 43.1685C106.194 46.0173 105.651 48.5287 104.564 50.7027C103.514 52.8393 101.996 54.4886 100.01 55.6506C98.0229 56.8126 95.7364 57.3936 93.15 57.3936ZM93.15 53.6265C95.8488 53.6265 97.9104 52.7456 99.3348 50.9839C100.797 49.1846 101.528 46.5795 101.528 43.1685C101.528 39.8325 100.797 37.2648 99.3348 35.4656C97.8729 33.6289 95.8113 32.7106 93.15 32.7106C90.4887 32.7106 88.4271 33.6289 86.9652 35.4656C85.5033 37.2648 84.7724 39.8325 84.7724 43.1685C84.7724 46.542 85.4846 49.1284 86.909 50.9276C88.3708 52.7269 90.4512 53.6265 93.15 53.6265Z" fill="#282A3A"/>
<defs>
<radialGradient id="paint0_radial_1390_4955" cx="0" cy="0" r="1" gradientUnits="userSpaceOnUse" gradientTransform="translate(1.98573 27.0398) rotate(54.5369) scale(37.3919 21.4212)">
<stop offset="0.0219789" stop-color="white" stop-opacity="0.63"/>
<stop offset="0.557575" stop-color="#1FF1E3" stop-opacity="0.62"/>
<stop offset="1" stop-color="#8135F9"/>
</radialGradient>
</defs>
</svg>
